<?xml version="1.0" encoding="utf-8" standalone="no"?>
<!DOCTYPE svg PUBLIC "-//W3C//DTD SVG 1.1//EN"
  "http://www.w3.org/Graphics/SVG/1.1/DTD/svg11.dtd">
<svg xmlns:xlink="http://www.w3.org/1999/xlink" width="240.667105pt" height="178.341047pt" viewBox="0 0 240.667105 178.341047" xmlns="http://www.w3.org/2000/svg" version="1.1">
 <metadata>
  <rdf:RDF xmlns:dc="http://purl.org/dc/elements/1.1/" xmlns:cc="http://creativecommons.org/ns#" xmlns:rdf="http://www.w3.org/1999/02/22-rdf-syntax-ns#">
   <cc:Work>
    <dc:type rdf:resource="http://purl.org/dc/dcmitype/StillImage"/>
    <dc:date>2026-07-09T18:52:59.374294</dc:date>
    <dc:format>image/svg+xml</dc:format>
    <dc:creator>
     <cc:Agent>
      <dc:title>Matplotlib v3.10.0, https://matplotlib.org/</dc:title>
     </cc:Agent>
    </dc:creator>
   </cc:Work>
  </rdf:RDF>
 </metadata>
 <defs>
  <style type="text/css">*{stroke-linejoin: round; stroke-linecap: butt}</style>
 </defs>
 <g id="figure_1">
  <g id="patch_1">
   <path d="M 0 178.341047 
L 240.667105 178.341047 
L 240.667105 0 
L 0 0 
z
" style="fill: #ffffff"/>
  </g>
  <g id="axes_1">
   <g id="patch_2">
    <path d="M 28.597094 156.334109 
L 237.297881 156.334109 
L 237.297881 14.460094 
L 28.597094 14.460094 
z
" style="fill: #ffffff"/>
   </g>
   <g id="patch_3">
    <path d="M 38.083493 156.334109 
L 40.455093 156.334109 
L 40.455093 156.267087 
L 38.083493 156.267087 
z
" clip-path="url(#pa76daf2b15)" style="fill: #a9d3e7; stroke: #ffffff; stroke-width: 0.25; stroke-linejoin: miter"/>
   </g>
   <g id="patch_4">
    <path d="M 40.455093 156.334109 
L 42.826693 156.334109 
L 42.826693 156.334109 
L 40.455093 156.334109 
z
" clip-path="url(#pa76daf2b15)" style="fill: #a9d3e7; stroke: #ffffff; stroke-width: 0.25; stroke-linejoin: miter"/>
   </g>
   <g id="patch_5">
    <path d="M 42.826693 156.334109 
L 45.198293 156.334109 
L 45.198293 156.334109 
L 42.826693 156.334109 
z
" clip-path="url(#pa76daf2b15)" style="fill: #a9d3e7; stroke: #ffffff; stroke-width: 0.25; stroke-linejoin: miter"/>
   </g>
   <g id="patch_6">
    <path d="M 45.198293 156.334109 
L 47.569893 156.334109 
L 47.569893 156.334109 
L 45.198293 156.334109 
z
" clip-path="url(#pa76daf2b15)" style="fill: #a9d3e7; stroke: #ffffff; stroke-width: 0.25; stroke-linejoin: miter"/>
   </g>
   <g id="patch_7">
    <path d="M 47.569893 156.334109 
L 49.941492 156.334109 
L 49.941492 156.334109 
L 47.569893 156.334109 
z
" clip-path="url(#pa76daf2b15)" style="fill: #a9d3e7; stroke: #ffffff; stroke-width: 0.25; stroke-linejoin: miter"/>
   </g>
   <g id="patch_8">
    <path d="M 49.941492 156.334109 
L 52.313092 156.334109 
L 52.313092 156.334109 
L 49.941492 156.334109 
z
" clip-path="url(#pa76daf2b15)" style="fill: #a9d3e7; stroke: #ffffff; stroke-width: 0.25; stroke-linejoin: miter"/>
   </g>
   <g id="patch_9">
    <path d="M 52.313092 156.334109 
L 54.684692 156.334109 
L 54.684692 156.334109 
L 52.313092 156.334109 
z
" clip-path="url(#pa76daf2b15)" style="fill: #a9d3e7; stroke: #ffffff; stroke-width: 0.25; stroke-linejoin: miter"/>
   </g>
   <g id="patch_10">
    <path d="M 54.684692 156.334109 
L 57.056292 156.334109 
L 57.056292 156.334109 
L 54.684692 156.334109 
z
" clip-path="url(#pa76daf2b15)" style="fill: #a9d3e7; stroke: #ffffff; stroke-width: 0.25; stroke-linejoin: miter"/>
   </g>
   <g id="patch_11">
    <path d="M 57.056292 156.334109 
L 59.427892 156.334109 
L 59.427892 156.334109 
L 57.056292 156.334109 
z
" clip-path="url(#pa76daf2b15)" style="fill: #a9d3e7; stroke: #ffffff; stroke-width: 0.25; stroke-linejoin: miter"/>
   </g>
   <g id="patch_12">
    <path d="M 59.427892 156.334109 
L 61.799492 156.334109 
L 61.799492 156.334109 
L 59.427892 156.334109 
z
" clip-path="url(#pa76daf2b15)" style="fill: #a9d3e7; stroke: #ffffff; stroke-width: 0.25; stroke-linejoin: miter"/>
   </g>
   <g id="patch_13">
    <path d="M 61.799492 156.334109 
L 64.171092 156.334109 
L 64.171092 156.334109 
L 61.799492 156.334109 
z
" clip-path="url(#pa76daf2b15)" style="fill: #a9d3e7; stroke: #ffffff; stroke-width: 0.25; stroke-linejoin: miter"/>
   </g>
   <g id="patch_14">
    <path d="M 64.171092 156.334109 
L 66.542691 156.334109 
L 66.542691 156.334109 
L 64.171092 156.334109 
z
" clip-path="url(#pa76daf2b15)" style="fill: #a9d3e7; stroke: #ffffff; stroke-width: 0.25; stroke-linejoin: miter"/>
   </g>
   <g id="patch_15">
    <path d="M 66.542691 156.334109 
L 68.914291 156.334109 
L 68.914291 156.334109 
L 66.542691 156.334109 
z
" clip-path="url(#pa76daf2b15)" style="fill: #a9d3e7; stroke: #ffffff; stroke-width: 0.25; stroke-linejoin: miter"/>
   </g>
   <g id="patch_16">
    <path d="M 68.914291 156.334109 
L 71.285891 156.334109 
L 71.285891 156.334109 
L 68.914291 156.334109 
z
" clip-path="url(#pa76daf2b15)" style="fill: #a9d3e7; stroke: #ffffff; stroke-width: 0.25; stroke-linejoin: miter"/>
   </g>
   <g id="patch_17">
    <path d="M 71.285891 156.334109 
L 73.657491 156.334109 
L 73.657491 156.334109 
L 71.285891 156.334109 
z
" clip-path="url(#pa76daf2b15)" style="fill: #a9d3e7; stroke: #ffffff; stroke-width: 0.25; stroke-linejoin: miter"/>
   </g>
   <g id="patch_18">
    <path d="M 73.657491 156.334109 
L 76.029091 156.334109 
L 76.029091 156.334109 
L 73.657491 156.334109 
z
" clip-path="url(#pa76daf2b15)" style="fill: #a9d3e7; stroke: #ffffff; stroke-width: 0.25; stroke-linejoin: miter"/>
   </g>
   <g id="patch_19">
    <path d="M 76.029091 156.334109 
L 78.400691 156.334109 
L 78.400691 156.334109 
L 76.029091 156.334109 
z
" clip-path="url(#pa76daf2b15)" style="fill: #a9d3e7; stroke: #ffffff; stroke-width: 0.25; stroke-linejoin: miter"/>
   </g>
   <g id="patch_20">
    <path d="M 78.400691 156.334109 
L 80.772291 156.334109 
L 80.772291 156.334109 
L 78.400691 156.334109 
z
" clip-path="url(#pa76daf2b15)" style="fill: #a9d3e7; stroke: #ffffff; stroke-width: 0.25; stroke-linejoin: miter"/>
   </g>
   <g id="patch_21">
    <path d="M 80.772291 156.334109 
L 83.14389 156.334109 
L 83.14389 156.334109 
L 80.772291 156.334109 
z
" clip-path="url(#pa76daf2b15)" style="fill: #a9d3e7; stroke: #ffffff; stroke-width: 0.25; stroke-linejoin: miter"/>
   </g>
   <g id="patch_22">
    <path d="M 83.14389 156.334109 
L 85.51549 156.334109 
L 85.51549 156.334109 
L 83.14389 156.334109 
z
" clip-path="url(#pa76daf2b15)" style="fill: #a9d3e7; stroke: #ffffff; stroke-width: 0.25; stroke-linejoin: miter"/>
   </g>
   <g id="patch_23">
    <path d="M 85.51549 156.334109 
L 87.88709 156.334109 
L 87.88709 156.334109 
L 85.51549 156.334109 
z
" clip-path="url(#pa76daf2b15)" style="fill: #a9d3e7; stroke: #ffffff; stroke-width: 0.25; stroke-linejoin: miter"/>
   </g>
   <g id="patch_24">
    <path d="M 87.88709 156.334109 
L 90.25869 156.334109 
L 90.25869 156.334109 
L 87.88709 156.334109 
z
" clip-path="url(#pa76daf2b15)" style="fill: #a9d3e7; stroke: #ffffff; stroke-width: 0.25; stroke-linejoin: miter"/>
   </g>
   <g id="patch_25">
    <path d="M 90.25869 156.334109 
L 92.63029 156.334109 
L 92.63029 156.334109 
L 90.25869 156.334109 
z
" clip-path="url(#pa76daf2b15)" style="fill: #a9d3e7; stroke: #ffffff; stroke-width: 0.25; stroke-linejoin: miter"/>
   </g>
   <g id="patch_26">
    <path d="M 92.63029 156.334109 
L 95.00189 156.334109 
L 95.00189 156.334109 
L 92.63029 156.334109 
z
" clip-path="url(#pa76daf2b15)" style="fill: #a9d3e7; stroke: #ffffff; stroke-width: 0.25; stroke-linejoin: miter"/>
   </g>
   <g id="patch_27">
    <path d="M 95.00189 156.334109 
L 97.37349 156.334109 
L 97.37349 156.334109 
L 95.00189 156.334109 
z
" clip-path="url(#pa76daf2b15)" style="fill: #a9d3e7; stroke: #ffffff; stroke-width: 0.25; stroke-linejoin: miter"/>
   </g>
   <g id="patch_28">
    <path d="M 97.37349 156.334109 
L 99.745089 156.334109 
L 99.745089 156.334109 
L 97.37349 156.334109 
z
" clip-path="url(#pa76daf2b15)" style="fill: #a9d3e7; stroke: #ffffff; stroke-width: 0.25; stroke-linejoin: miter"/>
   </g>
   <g id="patch_29">
    <path d="M 99.745089 156.334109 
L 102.116689 156.334109 
L 102.116689 156.334109 
L 99.745089 156.334109 
z
" clip-path="url(#pa76daf2b15)" style="fill: #a9d3e7; stroke: #ffffff; stroke-width: 0.25; stroke-linejoin: miter"/>
   </g>
   <g id="patch_30">
    <path d="M 102.116689 156.334109 
L 104.488289 156.334109 
L 104.488289 156.334109 
L 102.116689 156.334109 
z
" clip-path="url(#pa76daf2b15)" style="fill: #a9d3e7; stroke: #ffffff; stroke-width: 0.25; stroke-linejoin: miter"/>
   </g>
   <g id="patch_31">
    <path d="M 104.488289 156.334109 
L 106.859889 156.334109 
L 106.859889 156.334109 
L 104.488289 156.334109 
z
" clip-path="url(#pa76daf2b15)" style="fill: #a9d3e7; stroke: #ffffff; stroke-width: 0.25; stroke-linejoin: miter"/>
   </g>
   <g id="patch_32">
    <path d="M 106.859889 156.334109 
L 109.231489 156.334109 
L 109.231489 156.334109 
L 106.859889 156.334109 
z
" clip-path="url(#pa76daf2b15)" style="fill: #a9d3e7; stroke: #ffffff; stroke-width: 0.25; stroke-linejoin: miter"/>
   </g>
   <g id="patch_33">
    <path d="M 109.231489 156.334109 
L 111.603089 156.334109 
L 111.603089 156.334109 
L 109.231489 156.334109 
z
" clip-path="url(#pa76daf2b15)" style="fill: #a9d3e7; stroke: #ffffff; stroke-width: 0.25; stroke-linejoin: miter"/>
   </g>
   <g id="patch_34">
    <path d="M 111.603089 156.334109 
L 113.974689 156.334109 
L 113.974689 156.334109 
L 111.603089 156.334109 
z
" clip-path="url(#pa76daf2b15)" style="fill: #a9d3e7; stroke: #ffffff; stroke-width: 0.25; stroke-linejoin: miter"/>
   </g>
   <g id="patch_35">
    <path d="M 113.974689 156.334109 
L 116.346288 156.334109 
L 116.346288 156.334109 
L 113.974689 156.334109 
z
" clip-path="url(#pa76daf2b15)" style="fill: #a9d3e7; stroke: #ffffff; stroke-width: 0.25; stroke-linejoin: miter"/>
   </g>
   <g id="patch_36">
    <path d="M 116.346288 156.334109 
L 118.717888 156.334109 
L 118.717888 156.334109 
L 116.346288 156.334109 
z
" clip-path="url(#pa76daf2b15)" style="fill: #a9d3e7; stroke: #ffffff; stroke-width: 0.25; stroke-linejoin: miter"/>
   </g>
   <g id="patch_37">
    <path d="M 118.717888 156.334109 
L 121.089488 156.334109 
L 121.089488 156.334109 
L 118.717888 156.334109 
z
" clip-path="url(#pa76daf2b15)" style="fill: #a9d3e7; stroke: #ffffff; stroke-width: 0.25; stroke-linejoin: miter"/>
   </g>
   <g id="patch_38">
    <path d="M 121.089488 156.334109 
L 123.461088 156.334109 
L 123.461088 156.334109 
L 121.089488 156.334109 
z
" clip-path="url(#pa76daf2b15)" style="fill: #a9d3e7; stroke: #ffffff; stroke-width: 0.25; stroke-linejoin: miter"/>
   </g>
   <g id="patch_39">
    <path d="M 123.461088 156.334109 
L 125.832688 156.334109 
L 125.832688 156.334109 
L 123.461088 156.334109 
z
" clip-path="url(#pa76daf2b15)" style="fill: #a9d3e7; stroke: #ffffff; stroke-width: 0.25; stroke-linejoin: miter"/>
   </g>
   <g id="patch_40">
    <path d="M 125.832688 156.334109 
L 128.204288 156.334109 
L 128.204288 156.334109 
L 125.832688 156.334109 
z
" clip-path="url(#pa76daf2b15)" style="fill: #a9d3e7; stroke: #ffffff; stroke-width: 0.25; stroke-linejoin: miter"/>
   </g>
   <g id="patch_41">
    <path d="M 128.204288 156.334109 
L 130.575888 156.334109 
L 130.575888 156.334109 
L 128.204288 156.334109 
z
" clip-path="url(#pa76daf2b15)" style="fill: #a9d3e7; stroke: #ffffff; stroke-width: 0.25; stroke-linejoin: miter"/>
   </g>
   <g id="patch_42">
    <path d="M 130.575888 156.334109 
L 132.947487 156.334109 
L 132.947487 156.334109 
L 130.575888 156.334109 
z
" clip-path="url(#pa76daf2b15)" style="fill: #a9d3e7; stroke: #ffffff; stroke-width: 0.25; stroke-linejoin: miter"/>
   </g>
   <g id="patch_43">
    <path d="M 132.947487 156.334109 
L 135.319087 156.334109 
L 135.319087 156.334109 
L 132.947487 156.334109 
z
" clip-path="url(#pa76daf2b15)" style="fill: #a9d3e7; stroke: #ffffff; stroke-width: 0.25; stroke-linejoin: miter"/>
   </g>
   <g id="patch_44">
    <path d="M 135.319087 156.334109 
L 137.690687 156.334109 
L 137.690687 156.334109 
L 135.319087 156.334109 
z
" clip-path="url(#pa76daf2b15)" style="fill: #a9d3e7; stroke: #ffffff; stroke-width: 0.25; stroke-linejoin: miter"/>
   </g>
   <g id="patch_45">
    <path d="M 137.690687 156.334109 
L 140.062287 156.334109 
L 140.062287 156.334109 
L 137.690687 156.334109 
z
" clip-path="url(#pa76daf2b15)" style="fill: #a9d3e7; stroke: #ffffff; stroke-width: 0.25; stroke-linejoin: miter"/>
   </g>
   <g id="patch_46">
    <path d="M 140.062287 156.334109 
L 142.433887 156.334109 
L 142.433887 156.334109 
L 140.062287 156.334109 
z
" clip-path="url(#pa76daf2b15)" style="fill: #a9d3e7; stroke: #ffffff; stroke-width: 0.25; stroke-linejoin: miter"/>
   </g>
   <g id="patch_47">
    <path d="M 142.433887 156.334109 
L 144.805487 156.334109 
L 144.805487 156.334109 
L 142.433887 156.334109 
z
" clip-path="url(#pa76daf2b15)" style="fill: #a9d3e7; stroke: #ffffff; stroke-width: 0.25; stroke-linejoin: miter"/>
   </g>
   <g id="patch_48">
    <path d="M 144.805487 156.334109 
L 147.177087 156.334109 
L 147.177087 156.334109 
L 144.805487 156.334109 
z
" clip-path="url(#pa76daf2b15)" style="fill: #a9d3e7; stroke: #ffffff; stroke-width: 0.25; stroke-linejoin: miter"/>
   </g>
   <g id="patch_49">
    <path d="M 147.177087 156.334109 
L 149.548686 156.334109 
L 149.548686 156.334109 
L 147.177087 156.334109 
z
" clip-path="url(#pa76daf2b15)" style="fill: #a9d3e7; stroke: #ffffff; stroke-width: 0.25; stroke-linejoin: miter"/>
   </g>
   <g id="patch_50">
    <path d="M 149.548686 156.334109 
L 151.920286 156.334109 
L 151.920286 156.334109 
L 149.548686 156.334109 
z
" clip-path="url(#pa76daf2b15)" style="fill: #a9d3e7; stroke: #ffffff; stroke-width: 0.25; stroke-linejoin: miter"/>
   </g>
   <g id="patch_51">
    <path d="M 151.920286 156.334109 
L 154.291886 156.334109 
L 154.291886 156.334109 
L 151.920286 156.334109 
z
" clip-path="url(#pa76daf2b15)" style="fill: #a9d3e7; stroke: #ffffff; stroke-width: 0.25; stroke-linejoin: miter"/>
   </g>
   <g id="patch_52">
    <path d="M 154.291886 156.334109 
L 156.663486 156.334109 
L 156.663486 156.334109 
L 154.291886 156.334109 
z
" clip-path="url(#pa76daf2b15)" style="fill: #a9d3e7; stroke: #ffffff; stroke-width: 0.25; stroke-linejoin: miter"/>
   </g>
   <g id="patch_53">
    <path d="M 156.663486 156.334109 
L 159.035086 156.334109 
L 159.035086 156.334109 
L 156.663486 156.334109 
z
" clip-path="url(#pa76daf2b15)" style="fill: #a9d3e7; stroke: #ffffff; stroke-width: 0.25; stroke-linejoin: miter"/>
   </g>
   <g id="patch_54">
    <path d="M 159.035086 156.334109 
L 161.406686 156.334109 
L 161.406686 156.334109 
L 159.035086 156.334109 
z
" clip-path="url(#pa76daf2b15)" style="fill: #a9d3e7; stroke: #ffffff; stroke-width: 0.25; stroke-linejoin: miter"/>
   </g>
   <g id="patch_55">
    <path d="M 161.406686 156.334109 
L 163.778286 156.334109 
L 163.778286 156.334109 
L 161.406686 156.334109 
z
" clip-path="url(#pa76daf2b15)" style="fill: #a9d3e7; stroke: #ffffff; stroke-width: 0.25; stroke-linejoin: miter"/>
   </g>
   <g id="patch_56">
    <path d="M 163.778286 156.334109 
L 166.149885 156.334109 
L 166.149885 156.334109 
L 163.778286 156.334109 
z
" clip-path="url(#pa76daf2b15)" style="fill: #a9d3e7; stroke: #ffffff; stroke-width: 0.25; stroke-linejoin: miter"/>
   </g>
   <g id="patch_57">
    <path d="M 166.149885 156.334109 
L 168.521485 156.334109 
L 168.521485 156.334109 
L 166.149885 156.334109 
z
" clip-path="url(#pa76daf2b15)" style="fill: #a9d3e7; stroke: #ffffff; stroke-width: 0.25; stroke-linejoin: miter"/>
   </g>
   <g id="patch_58">
    <path d="M 168.521485 156.334109 
L 170.893085 156.334109 
L 170.893085 156.334109 
L 168.521485 156.334109 
z
" clip-path="url(#pa76daf2b15)" style="fill: #a9d3e7; stroke: #ffffff; stroke-width: 0.25; stroke-linejoin: miter"/>
   </g>
   <g id="patch_59">
    <path d="M 170.893085 156.334109 
L 173.264685 156.334109 
L 173.264685 156.334109 
L 170.893085 156.334109 
z
" clip-path="url(#pa76daf2b15)" style="fill: #a9d3e7; stroke: #ffffff; stroke-width: 0.25; stroke-linejoin: miter"/>
   </g>
   <g id="patch_60">
    <path d="M 173.264685 156.334109 
L 175.636285 156.334109 
L 175.636285 156.267087 
L 173.264685 156.267087 
z
" clip-path="url(#pa76daf2b15)" style="fill: #a9d3e7; stroke: #ffffff; stroke-width: 0.25; stroke-linejoin: miter"/>
   </g>
   <g id="patch_61">
    <path d="M 175.636285 156.334109 
L 178.007885 156.334109 
L 178.007885 156.334109 
L 175.636285 156.334109 
z
" clip-path="url(#pa76daf2b15)" style="fill: #a9d3e7; stroke: #ffffff; stroke-width: 0.25; stroke-linejoin: miter"/>
   </g>
   <g id="patch_62">
    <path d="M 178.007885 156.334109 
L 180.379485 156.334109 
L 180.379485 156.334109 
L 178.007885 156.334109 
z
" clip-path="url(#pa76daf2b15)" style="fill: #a9d3e7; stroke: #ffffff; stroke-width: 0.25; stroke-linejoin: miter"/>
   </g>
   <g id="patch_63">
    <path d="M 180.379485 156.334109 
L 182.751084 156.334109 
L 182.751084 156.334109 
L 180.379485 156.334109 
z
" clip-path="url(#pa76daf2b15)" style="fill: #a9d3e7; stroke: #ffffff; stroke-width: 0.25; stroke-linejoin: miter"/>
   </g>
   <g id="patch_64">
    <path d="M 182.751084 156.334109 
L 185.122684 156.334109 
L 185.122684 155.998995 
L 182.751084 155.998995 
z
" clip-path="url(#pa76daf2b15)" style="fill: #a9d3e7; stroke: #ffffff; stroke-width: 0.25; stroke-linejoin: miter"/>
   </g>
   <g id="patch_65">
    <path d="M 185.122684 156.334109 
L 187.494284 156.334109 
L 187.494284 155.663881 
L 185.122684 155.663881 
z
" clip-path="url(#pa76daf2b15)" style="fill: #a9d3e7; stroke: #ffffff; stroke-width: 0.25; stroke-linejoin: miter"/>
   </g>
   <g id="patch_66">
    <path d="M 187.494284 156.334109 
L 189.865884 156.334109 
L 189.865884 155.529835 
L 187.494284 155.529835 
z
" clip-path="url(#pa76daf2b15)" style="fill: #a9d3e7; stroke: #ffffff; stroke-width: 0.25; stroke-linejoin: miter"/>
   </g>
   <g id="patch_67">
    <path d="M 189.865884 156.334109 
L 192.237484 156.334109 
L 192.237484 155.060675 
L 189.865884 155.060675 
z
" clip-path="url(#pa76daf2b15)" style="fill: #a9d3e7; stroke: #ffffff; stroke-width: 0.25; stroke-linejoin: miter"/>
   </g>
   <g id="patch_68">
    <path d="M 192.237484 156.334109 
L 194.609084 156.334109 
L 194.609084 153.586172 
L 192.237484 153.586172 
z
" clip-path="url(#pa76daf2b15)" style="fill: #a9d3e7; stroke: #ffffff; stroke-width: 0.25; stroke-linejoin: miter"/>
   </g>
   <g id="patch_69">
    <path d="M 194.609084 156.334109 
L 196.980684 156.334109 
L 196.980684 153.385103 
L 194.609084 153.385103 
z
" clip-path="url(#pa76daf2b15)" style="fill: #a9d3e7; stroke: #ffffff; stroke-width: 0.25; stroke-linejoin: miter"/>
   </g>
   <g id="patch_70">
    <path d="M 196.980684 156.334109 
L 199.352283 156.334109 
L 199.352283 150.704188 
L 196.980684 150.704188 
z
" clip-path="url(#pa76daf2b15)" style="fill: #a9d3e7; stroke: #ffffff; stroke-width: 0.25; stroke-linejoin: miter"/>
   </g>
   <g id="patch_71">
    <path d="M 199.352283 156.334109 
L 201.723883 156.334109 
L 201.723883 146.883885 
L 199.352283 146.883885 
z
" clip-path="url(#pa76daf2b15)" style="fill: #a9d3e7; stroke: #ffffff; stroke-width: 0.25; stroke-linejoin: miter"/>
   </g>
   <g id="patch_72">
    <path d="M 201.723883 156.334109 
L 204.095483 156.334109 
L 204.095483 142.661444 
L 201.723883 142.661444 
z
" clip-path="url(#pa76daf2b15)" style="fill: #a9d3e7; stroke: #ffffff; stroke-width: 0.25; stroke-linejoin: miter"/>
   </g>
   <g id="patch_73">
    <path d="M 204.095483 156.334109 
L 206.467083 156.334109 
L 206.467083 135.489996 
L 204.095483 135.489996 
z
" clip-path="url(#pa76daf2b15)" style="fill: #a9d3e7; stroke: #ffffff; stroke-width: 0.25; stroke-linejoin: miter"/>
   </g>
   <g id="patch_74">
    <path d="M 206.467083 156.334109 
L 208.838683 156.334109 
L 208.838683 125.637634 
L 206.467083 125.637634 
z
" clip-path="url(#pa76daf2b15)" style="fill: #a9d3e7; stroke: #ffffff; stroke-width: 0.25; stroke-linejoin: miter"/>
   </g>
   <g id="patch_75">
    <path d="M 208.838683 156.334109 
L 211.210283 156.334109 
L 211.210283 111.897945 
L 208.838683 111.897945 
z
" clip-path="url(#pa76daf2b15)" style="fill: #a9d3e7; stroke: #ffffff; stroke-width: 0.25; stroke-linejoin: miter"/>
   </g>
   <g id="patch_76">
    <path d="M 211.210283 156.334109 
L 213.581883 156.334109 
L 213.581883 85.155819 
L 211.210283 85.155819 
z
" clip-path="url(#pa76daf2b15)" style="fill: #a9d3e7; stroke: #ffffff; stroke-width: 0.25; stroke-linejoin: miter"/>
   </g>
   <g id="patch_77">
    <path d="M 213.581883 156.334109 
L 215.953482 156.334109 
L 215.953482 41.188815 
L 213.581883 41.188815 
z
" clip-path="url(#pa76daf2b15)" style="fill: #a9d3e7; stroke: #ffffff; stroke-width: 0.25; stroke-linejoin: miter"/>
   </g>
   <g id="patch_78">
    <path d="M 215.953482 156.334109 
L 218.325082 156.334109 
L 218.325082 21.215999 
L 215.953482 21.215999 
z
" clip-path="url(#pa76daf2b15)" style="fill: #a9d3e7; stroke: #ffffff; stroke-width: 0.25; stroke-linejoin: miter"/>
   </g>
   <g id="patch_79">
    <path d="M 218.325082 156.334109 
L 220.696682 156.334109 
L 220.696682 44.33889 
L 218.325082 44.33889 
z
" clip-path="url(#pa76daf2b15)" style="fill: #a9d3e7; stroke: #ffffff; stroke-width: 0.25; stroke-linejoin: miter"/>
   </g>
   <g id="patch_80">
    <path d="M 220.696682 156.334109 
L 223.068282 156.334109 
L 223.068282 108.814893 
L 220.696682 108.814893 
z
" clip-path="url(#pa76daf2b15)" style="fill: #a9d3e7; stroke: #ffffff; stroke-width: 0.25; stroke-linejoin: miter"/>
   </g>
   <g id="patch_81">
    <path d="M 223.068282 156.334109 
L 225.439882 156.334109 
L 225.439882 145.208313 
L 223.068282 145.208313 
z
" clip-path="url(#pa76daf2b15)" style="fill: #a9d3e7; stroke: #ffffff; stroke-width: 0.25; stroke-linejoin: miter"/>
   </g>
   <g id="patch_82">
    <path d="M 225.439882 156.334109 
L 227.811482 156.334109 
L 227.811482 154.792583 
L 225.439882 154.792583 
z
" clip-path="url(#pa76daf2b15)" style="fill: #a9d3e7; stroke: #ffffff; stroke-width: 0.25; stroke-linejoin: miter"/>
   </g>
   <g id="matplotlib.axis_1">
    <g id="xtick_1">
     <g id="line2d_1">
      <defs>
       <path id="m45089a0bd0" d="M 0 0 
L 0 2.5 
" style="stroke: #000000; stroke-width: 0.6"/>
      </defs>
      <g>
       <use xlink:href="#m45089a0bd0" x="37.65875" y="156.334109" style="stroke: #000000; stroke-width: 0.6"/>
      </g>
     </g>
     <g id="text_1">
      <text style="font-size: 5.1px; font-family: 'Liberation Sans'; text-anchor: middle" x="37.65875" y="164.530016" transform="rotate(-0 37.65875 164.530016)">−10</text>
     </g>
    </g>
    <g id="xtick_2">
     <g id="line2d_2">
      <g>
       <use xlink:href="#m45089a0bd0" x="62.497539" y="156.334109" style="stroke: #000000; stroke-width: 0.6"/>
      </g>
     </g>
     <g id="text_2">
      <text style="font-size: 5.1px; font-family: 'Liberation Sans'; text-anchor: middle" x="62.497539" y="164.530016" transform="rotate(-0 62.497539 164.530016)">−8</text>
     </g>
    </g>
    <g id="xtick_3">
     <g id="line2d_3">
      <g>
       <use xlink:href="#m45089a0bd0" x="87.336329" y="156.334109" style="stroke: #000000; stroke-width: 0.6"/>
      </g>
     </g>
     <g id="text_3">
      <text style="font-size: 5.1px; font-family: 'Liberation Sans'; text-anchor: middle" x="87.336329" y="164.530016" transform="rotate(-0 87.336329 164.530016)">−6</text>
     </g>
    </g>
    <g id="xtick_4">
     <g id="line2d_4">
      <g>
       <use xlink:href="#m45089a0bd0" x="112.175118" y="156.334109" style="stroke: #000000; stroke-width: 0.6"/>
      </g>
     </g>
     <g id="text_4">
      <text style="font-size: 5.1px; font-family: 'Liberation Sans'; text-anchor: middle" x="112.175118" y="164.530016" transform="rotate(-0 112.175118 164.530016)">−4</text>
     </g>
    </g>
    <g id="xtick_5">
     <g id="line2d_5">
      <g>
       <use xlink:href="#m45089a0bd0" x="137.013908" y="156.334109" style="stroke: #000000; stroke-width: 0.6"/>
      </g>
     </g>
     <g id="text_5">
      <text style="font-size: 5.1px; font-family: 'Liberation Sans'; text-anchor: middle" x="137.013908" y="164.530016" transform="rotate(-0 137.013908 164.530016)">−2</text>
     </g>
    </g>
    <g id="xtick_6">
     <g id="line2d_6">
      <g>
       <use xlink:href="#m45089a0bd0" x="161.852697" y="156.334109" style="stroke: #000000; stroke-width: 0.6"/>
      </g>
     </g>
     <g id="text_6">
      <text style="font-size: 5.1px; font-family: 'Liberation Sans'; text-anchor: middle" x="161.852697" y="164.530016" transform="rotate(-0 161.852697 164.530016)">0</text>
     </g>
    </g>
    <g id="xtick_7">
     <g id="line2d_7">
      <g>
       <use xlink:href="#m45089a0bd0" x="186.691487" y="156.334109" style="stroke: #000000; stroke-width: 0.6"/>
      </g>
     </g>
     <g id="text_7">
      <text style="font-size: 5.1px; font-family: 'Liberation Sans'; text-anchor: middle" x="186.691487" y="164.530016" transform="rotate(-0 186.691487 164.530016)">2</text>
     </g>
    </g>
    <g id="xtick_8">
     <g id="line2d_8">
      <g>
       <use xlink:href="#m45089a0bd0" x="211.530276" y="156.334109" style="stroke: #000000; stroke-width: 0.6"/>
      </g>
     </g>
     <g id="text_8">
      <text style="font-size: 5.1px; font-family: 'Liberation Sans'; text-anchor: middle" x="211.530276" y="164.530016" transform="rotate(-0 211.530276 164.530016)">4</text>
     </g>
    </g>
    <g id="xtick_9">
     <g id="line2d_9">
      <g>
       <use xlink:href="#m45089a0bd0" x="236.369066" y="156.334109" style="stroke: #000000; stroke-width: 0.6"/>
      </g>
     </g>
     <g id="text_9">
      <text style="font-size: 5.1px; font-family: 'Liberation Sans'; text-anchor: middle" x="236.369066" y="164.530016" transform="rotate(-0 236.369066 164.530016)">6</text>
     </g>
    </g>
    <g id="text_10">
     <text style="font-size: 6.3px; font-family: 'Liberation Sans'; text-anchor: middle" x="132.947487" y="174.153797" transform="rotate(-0 132.947487 174.153797)">Sample median expression across retained CGT-axis genes</text>
    </g>
   </g>
   <g id="matplotlib.axis_2">
    <g id="ytick_1">
     <g id="line2d_10">
      <defs>
       <path id="m4e6621df34" d="M 0 0 
L -2.5 0 
" style="stroke: #000000; stroke-width: 0.6"/>
      </defs>
      <g>
       <use xlink:href="#m4e6621df34" x="28.597094" y="156.334109" style="stroke: #000000; stroke-width: 0.6"/>
      </g>
     </g>
     <g id="text_11">
      <text style="font-size: 5.1px; font-family: 'Liberation Sans'; text-anchor: end" x="24.097094" y="158.182063" transform="rotate(-0 24.097094 158.182063)">0</text>
     </g>
    </g>
    <g id="ytick_2">
     <g id="line2d_11">
      <g>
       <use xlink:href="#m4e6621df34" x="28.597094" y="139.578391" style="stroke: #000000; stroke-width: 0.6"/>
      </g>
     </g>
     <g id="text_12">
      <text style="font-size: 5.1px; font-family: 'Liberation Sans'; text-anchor: end" x="24.097094" y="141.426345" transform="rotate(-0 24.097094 141.426345)">250</text>
     </g>
    </g>
    <g id="ytick_3">
     <g id="line2d_12">
      <g>
       <use xlink:href="#m4e6621df34" x="28.597094" y="122.822673" style="stroke: #000000; stroke-width: 0.6"/>
      </g>
     </g>
     <g id="text_13">
      <text style="font-size: 5.1px; font-family: 'Liberation Sans'; text-anchor: end" x="24.097094" y="124.670627" transform="rotate(-0 24.097094 124.670627)">500</text>
     </g>
    </g>
    <g id="ytick_4">
     <g id="line2d_13">
      <g>
       <use xlink:href="#m4e6621df34" x="28.597094" y="106.066955" style="stroke: #000000; stroke-width: 0.6"/>
      </g>
     </g>
     <g id="text_14">
      <text style="font-size: 5.1px; font-family: 'Liberation Sans'; text-anchor: end" x="24.097094" y="107.914909" transform="rotate(-0 24.097094 107.914909)">750</text>
     </g>
    </g>
    <g id="ytick_5">
     <g id="line2d_14">
      <g>
       <use xlink:href="#m4e6621df34" x="28.597094" y="89.311237" style="stroke: #000000; stroke-width: 0.6"/>
      </g>
     </g>
     <g id="text_15">
      <text style="font-size: 5.1px; font-family: 'Liberation Sans'; text-anchor: end" x="24.097094" y="91.15919" transform="rotate(-0 24.097094 91.15919)">1000</text>
     </g>
    </g>
    <g id="ytick_6">
     <g id="line2d_15">
      <g>
       <use xlink:href="#m4e6621df34" x="28.597094" y="72.555519" style="stroke: #000000; stroke-width: 0.6"/>
      </g>
     </g>
     <g id="text_16">
      <text style="font-size: 5.1px; font-family: 'Liberation Sans'; text-anchor: end" x="24.097094" y="74.403472" transform="rotate(-0 24.097094 74.403472)">1250</text>
     </g>
    </g>
    <g id="ytick_7">
     <g id="line2d_16">
      <g>
       <use xlink:href="#m4e6621df34" x="28.597094" y="55.799801" style="stroke: #000000; stroke-width: 0.6"/>
      </g>
     </g>
     <g id="text_17">
      <text style="font-size: 5.1px; font-family: 'Liberation Sans'; text-anchor: end" x="24.097094" y="57.647754" transform="rotate(-0 24.097094 57.647754)">1500</text>
     </g>
    </g>
    <g id="ytick_8">
     <g id="line2d_17">
      <g>
       <use xlink:href="#m4e6621df34" x="28.597094" y="39.044083" style="stroke: #000000; stroke-width: 0.6"/>
      </g>
     </g>
     <g id="text_18">
      <text style="font-size: 5.1px; font-family: 'Liberation Sans'; text-anchor: end" x="24.097094" y="40.892036" transform="rotate(-0 24.097094 40.892036)">1750</text>
     </g>
    </g>
    <g id="ytick_9">
     <g id="line2d_18">
      <g>
       <use xlink:href="#m4e6621df34" x="28.597094" y="22.288365" style="stroke: #000000; stroke-width: 0.6"/>
      </g>
     </g>
     <g id="text_19">
      <text style="font-size: 5.1px; font-family: 'Liberation Sans'; text-anchor: end" x="24.097094" y="24.136318" transform="rotate(-0 24.097094 24.136318)">2000</text>
     </g>
    </g>
    <g id="text_20">
     <text style="font-size: 6.3px; font-family: 'Liberation Sans'; text-anchor: middle" x="7.445531" y="85.397102" transform="rotate(-90 7.445531 85.397102)">Samples</text>
    </g>
   </g>
   <g id="line2d_19">
    <path d="M 192.901184 156.334109 
L 192.901184 14.460094 
" clip-path="url(#pa76daf2b15)" style="fill: none; stroke: #b6465f; stroke-width: 1.1; stroke-linecap: square"/>
   </g>
   <g id="patch_83">
    <path d="M 28.597094 156.334109 
L 28.597094 14.460094 
" style="fill: none; stroke: #000000; stroke-width: 0.8; stroke-linejoin: miter; stroke-linecap: square"/>
   </g>
   <g id="patch_84">
    <path d="M 28.597094 156.334109 
L 237.297881 156.334109 
" style="fill: none; stroke: #000000; stroke-width: 0.8; stroke-linejoin: miter; stroke-linecap: square"/>
   </g>
   <g id="text_21">
    <text style="font-weight: 600; font-size: 7.7px; font-family: 'Liberation Sans'; text-anchor: middle" x="132.947487" y="8.460094" transform="rotate(-0 132.947487 8.460094)">TCGA expression-QC filter</text>
   </g>
   <g id="legend_1">
    <g id="line2d_20">
     <path d="M 33.277094 21.088469 
L 38.477094 21.088469 
L 43.677094 21.088469 
" style="fill: none; stroke: #b6465f; stroke-width: 1.1; stroke-linecap: square"/>
    </g>
    <g id="text_22">
     <text style="font-size: 5.2px; font-family: 'Liberation Sans'; text-anchor: start" x="47.837094" y="22.908469" transform="rotate(-0 47.837094 22.908469)">threshold 2.50</text>
    </g>
   </g>
  </g>
 </g>
 <defs>
  <clipPath id="pa76daf2b15">
   <rect x="28.597094" y="14.460094" width="208.700787" height="141.874016"/>
  </clipPath>
 </defs>
</svg>
