<?xml version="1.0" encoding="utf-8" standalone="no"?>
<!DOCTYPE svg PUBLIC "-//W3C//DTD SVG 1.1//EN"
  "http://www.w3.org/Graphics/SVG/1.1/DTD/svg11.dtd">
<svg xmlns:xlink="http://www.w3.org/1999/xlink" width="235.922569pt" height="189.254433pt" viewBox="0 0 235.922569 189.254433" xmlns="http://www.w3.org/2000/svg" version="1.1">
 <metadata>
  <rdf:RDF xmlns:dc="http://purl.org/dc/elements/1.1/" xmlns:cc="http://creativecommons.org/ns#" xmlns:rdf="http://www.w3.org/1999/02/22-rdf-syntax-ns#">
   <cc:Work>
    <dc:type rdf:resource="http://purl.org/dc/dcmitype/StillImage"/>
    <dc:date>2026-07-09T18:52:58.189296</dc:date>
    <dc:format>image/svg+xml</dc:format>
    <dc:creator>
     <cc:Agent>
      <dc:title>Matplotlib v3.10.0, https://matplotlib.org/</dc:title>
     </cc:Agent>
    </dc:creator>
   </cc:Work>
  </rdf:RDF>
 </metadata>
 <defs>
  <style type="text/css">*{stroke-linejoin: round; stroke-linecap: butt}</style>
 </defs>
 <g id="figure_1">
  <g id="patch_1">
   <path d="M 0 189.254433 
L 235.922569 189.254433 
L 235.922569 0 
L 0 0 
z
" style="fill: #ffffff"/>
  </g>
  <g id="axes_1">
   <g id="patch_2">
    <path d="M 24.341781 167.247495 
L 233.042569 167.247495 
L 233.042569 14.460094 
L 24.341781 14.460094 
z
" style="fill: #ffffff"/>
   </g>
   <g id="matplotlib.axis_1">
    <g id="xtick_1">
     <g id="line2d_1">
      <defs>
       <path id="m4f1c77338c" d="M 0 0 
L 0 2.5 
" style="stroke: #000000; stroke-width: 0.6"/>
      </defs>
      <g>
       <use xlink:href="#m4f1c77338c" x="33.828181" y="167.247495" style="stroke: #000000; stroke-width: 0.6"/>
      </g>
     </g>
     <g id="text_1">
      <text style="font-size: 5.1px; font-family: 'Liberation Sans'; text-anchor: middle" x="33.828181" y="175.443402" transform="rotate(-0 33.828181 175.443402)">1</text>
     </g>
    </g>
    <g id="xtick_2">
     <g id="line2d_2">
      <g>
       <use xlink:href="#m4f1c77338c" x="81.260178" y="167.247495" style="stroke: #000000; stroke-width: 0.6"/>
      </g>
     </g>
     <g id="text_2">
      <text style="font-size: 5.1px; font-family: 'Liberation Sans'; text-anchor: middle" x="81.260178" y="175.443402" transform="rotate(-0 81.260178 175.443402)">2</text>
     </g>
    </g>
    <g id="xtick_3">
     <g id="line2d_3">
      <g>
       <use xlink:href="#m4f1c77338c" x="128.692175" y="167.247495" style="stroke: #000000; stroke-width: 0.6"/>
      </g>
     </g>
     <g id="text_3">
      <text style="font-size: 5.1px; font-family: 'Liberation Sans'; text-anchor: middle" x="128.692175" y="175.443402" transform="rotate(-0 128.692175 175.443402)">3</text>
     </g>
    </g>
    <g id="xtick_4">
     <g id="line2d_4">
      <g>
       <use xlink:href="#m4f1c77338c" x="176.124172" y="167.247495" style="stroke: #000000; stroke-width: 0.6"/>
      </g>
     </g>
     <g id="text_4">
      <text style="font-size: 5.1px; font-family: 'Liberation Sans'; text-anchor: middle" x="176.124172" y="175.443402" transform="rotate(-0 176.124172 175.443402)">4</text>
     </g>
    </g>
    <g id="xtick_5">
     <g id="line2d_5">
      <g>
       <use xlink:href="#m4f1c77338c" x="223.556169" y="167.247495" style="stroke: #000000; stroke-width: 0.6"/>
      </g>
     </g>
     <g id="text_5">
      <text style="font-size: 5.1px; font-family: 'Liberation Sans'; text-anchor: middle" x="223.556169" y="175.443402" transform="rotate(-0 223.556169 175.443402)">5</text>
     </g>
    </g>
    <g id="text_6">
     <text style="font-size: 6.3px; font-family: 'Liberation Sans'; text-anchor: middle" x="128.692175" y="185.067183" transform="rotate(-0 128.692175 185.067183)">PC</text>
    </g>
   </g>
   <g id="matplotlib.axis_2">
    <g id="ytick_1">
     <g id="line2d_6">
      <path d="M 24.341781 163.061077 
L 233.042569 163.061077 
" clip-path="url(#p0e19caaa8e)" style="fill: none; stroke: #e7ebef; stroke-width: 0.55; stroke-linecap: square"/>
     </g>
     <g id="line2d_7">
      <defs>
       <path id="m11dbb728b4" d="M 0 0 
L -2.5 0 
" style="stroke: #000000; stroke-width: 0.6"/>
      </defs>
      <g>
       <use xlink:href="#m11dbb728b4" x="24.341781" y="163.061077" style="stroke: #000000; stroke-width: 0.6"/>
      </g>
     </g>
     <g id="text_7">
      <text style="font-size: 5.1px; font-family: 'Liberation Sans'; text-anchor: end" x="19.841781" y="164.90903" transform="rotate(-0 19.841781 164.90903)">0.0</text>
     </g>
    </g>
    <g id="ytick_2">
     <g id="line2d_8">
      <path d="M 24.341781 146.002223 
L 233.042569 146.002223 
" clip-path="url(#p0e19caaa8e)" style="fill: none; stroke: #e7ebef; stroke-width: 0.55; stroke-linecap: square"/>
     </g>
     <g id="line2d_9">
      <g>
       <use xlink:href="#m11dbb728b4" x="24.341781" y="146.002223" style="stroke: #000000; stroke-width: 0.6"/>
      </g>
     </g>
     <g id="text_8">
      <text style="font-size: 5.1px; font-family: 'Liberation Sans'; text-anchor: end" x="19.841781" y="147.850176" transform="rotate(-0 19.841781 147.850176)">0.1</text>
     </g>
    </g>
    <g id="ytick_3">
     <g id="line2d_10">
      <path d="M 24.341781 128.94337 
L 233.042569 128.94337 
" clip-path="url(#p0e19caaa8e)" style="fill: none; stroke: #e7ebef; stroke-width: 0.55; stroke-linecap: square"/>
     </g>
     <g id="line2d_11">
      <g>
       <use xlink:href="#m11dbb728b4" x="24.341781" y="128.94337" style="stroke: #000000; stroke-width: 0.6"/>
      </g>
     </g>
     <g id="text_9">
      <text style="font-size: 5.1px; font-family: 'Liberation Sans'; text-anchor: end" x="19.841781" y="130.791323" transform="rotate(-0 19.841781 130.791323)">0.2</text>
     </g>
    </g>
    <g id="ytick_4">
     <g id="line2d_12">
      <path d="M 24.341781 111.884516 
L 233.042569 111.884516 
" clip-path="url(#p0e19caaa8e)" style="fill: none; stroke: #e7ebef; stroke-width: 0.55; stroke-linecap: square"/>
     </g>
     <g id="line2d_13">
      <g>
       <use xlink:href="#m11dbb728b4" x="24.341781" y="111.884516" style="stroke: #000000; stroke-width: 0.6"/>
      </g>
     </g>
     <g id="text_10">
      <text style="font-size: 5.1px; font-family: 'Liberation Sans'; text-anchor: end" x="19.841781" y="113.732469" transform="rotate(-0 19.841781 113.732469)">0.3</text>
     </g>
    </g>
    <g id="ytick_5">
     <g id="line2d_14">
      <path d="M 24.341781 94.825662 
L 233.042569 94.825662 
" clip-path="url(#p0e19caaa8e)" style="fill: none; stroke: #e7ebef; stroke-width: 0.55; stroke-linecap: square"/>
     </g>
     <g id="line2d_15">
      <g>
       <use xlink:href="#m11dbb728b4" x="24.341781" y="94.825662" style="stroke: #000000; stroke-width: 0.6"/>
      </g>
     </g>
     <g id="text_11">
      <text style="font-size: 5.1px; font-family: 'Liberation Sans'; text-anchor: end" x="19.841781" y="96.673615" transform="rotate(-0 19.841781 96.673615)">0.4</text>
     </g>
    </g>
    <g id="ytick_6">
     <g id="line2d_16">
      <path d="M 24.341781 77.766809 
L 233.042569 77.766809 
" clip-path="url(#p0e19caaa8e)" style="fill: none; stroke: #e7ebef; stroke-width: 0.55; stroke-linecap: square"/>
     </g>
     <g id="line2d_17">
      <g>
       <use xlink:href="#m11dbb728b4" x="24.341781" y="77.766809" style="stroke: #000000; stroke-width: 0.6"/>
      </g>
     </g>
     <g id="text_12">
      <text style="font-size: 5.1px; font-family: 'Liberation Sans'; text-anchor: end" x="19.841781" y="79.614762" transform="rotate(-0 19.841781 79.614762)">0.5</text>
     </g>
    </g>
    <g id="ytick_7">
     <g id="line2d_18">
      <path d="M 24.341781 60.707955 
L 233.042569 60.707955 
" clip-path="url(#p0e19caaa8e)" style="fill: none; stroke: #e7ebef; stroke-width: 0.55; stroke-linecap: square"/>
     </g>
     <g id="line2d_19">
      <g>
       <use xlink:href="#m11dbb728b4" x="24.341781" y="60.707955" style="stroke: #000000; stroke-width: 0.6"/>
      </g>
     </g>
     <g id="text_13">
      <text style="font-size: 5.1px; font-family: 'Liberation Sans'; text-anchor: end" x="19.841781" y="62.555908" transform="rotate(-0 19.841781 62.555908)">0.6</text>
     </g>
    </g>
    <g id="ytick_8">
     <g id="line2d_20">
      <path d="M 24.341781 43.649101 
L 233.042569 43.649101 
" clip-path="url(#p0e19caaa8e)" style="fill: none; stroke: #e7ebef; stroke-width: 0.55; stroke-linecap: square"/>
     </g>
     <g id="line2d_21">
      <g>
       <use xlink:href="#m11dbb728b4" x="24.341781" y="43.649101" style="stroke: #000000; stroke-width: 0.6"/>
      </g>
     </g>
     <g id="text_14">
      <text style="font-size: 5.1px; font-family: 'Liberation Sans'; text-anchor: end" x="19.841781" y="45.497054" transform="rotate(-0 19.841781 45.497054)">0.7</text>
     </g>
    </g>
    <g id="ytick_9">
     <g id="line2d_22">
      <path d="M 24.341781 26.590247 
L 233.042569 26.590247 
" clip-path="url(#p0e19caaa8e)" style="fill: none; stroke: #e7ebef; stroke-width: 0.55; stroke-linecap: square"/>
     </g>
     <g id="line2d_23">
      <g>
       <use xlink:href="#m11dbb728b4" x="24.341781" y="26.590247" style="stroke: #000000; stroke-width: 0.6"/>
      </g>
     </g>
     <g id="text_15">
      <text style="font-size: 5.1px; font-family: 'Liberation Sans'; text-anchor: end" x="19.841781" y="28.438201" transform="rotate(-0 19.841781 28.438201)">0.8</text>
     </g>
    </g>
    <g id="text_16">
     <text style="font-size: 6.3px; font-family: 'Liberation Sans'; text-anchor: middle" x="7.445531" y="90.853795" transform="rotate(-90 7.445531 90.853795)">Explained variance</text>
    </g>
   </g>
   <g id="line2d_24">
    <path d="M 33.828181 21.404976 
L 81.260178 151.187014 
L 128.692175 157.868862 
L 176.124172 158.490207 
L 223.556169 160.302613 
" clip-path="url(#p0e19caaa8e)" style="fill: none; stroke: #626b75; stroke-linecap: square"/>
    <defs>
     <path id="mfa2fa7957b" d="M 0 1.75 
C 0.464105 1.75 0.909265 1.565609 1.237437 1.237437 
C 1.565609 0.909265 1.75 0.464105 1.75 0 
C 1.75 -0.464105 1.565609 -0.909265 1.237437 -1.237437 
C 0.909265 -1.565609 0.464105 -1.75 0 -1.75 
C -0.464105 -1.75 -0.909265 -1.565609 -1.237437 -1.237437 
C -1.565609 -0.909265 -1.75 -0.464105 -1.75 0 
C -1.75 0.464105 -1.565609 0.909265 -1.237437 1.237437 
C -0.909265 1.565609 -0.464105 1.75 0 1.75 
z
" style="stroke: #626b75"/>
    </defs>
    <g clip-path="url(#p0e19caaa8e)">
     <use xlink:href="#mfa2fa7957b" x="33.828181" y="21.404976" style="fill: #626b75; stroke: #626b75"/>
     <use xlink:href="#mfa2fa7957b" x="81.260178" y="151.187014" style="fill: #626b75; stroke: #626b75"/>
     <use xlink:href="#mfa2fa7957b" x="128.692175" y="157.868862" style="fill: #626b75; stroke: #626b75"/>
     <use xlink:href="#mfa2fa7957b" x="176.124172" y="158.490207" style="fill: #626b75; stroke: #626b75"/>
     <use xlink:href="#mfa2fa7957b" x="223.556169" y="160.302613" style="fill: #626b75; stroke: #626b75"/>
    </g>
   </g>
   <g id="line2d_25">
    <path d="M 33.828181 106.5054 
L 81.260178 134.328413 
L 128.692175 141.441214 
L 176.124172 145.772953 
L 223.556169 151.688364 
" clip-path="url(#p0e19caaa8e)" style="fill: none; stroke: #2a9d8f; stroke-linecap: square"/>
    <defs>
     <path id="m9b8c03e725" d="M 0 1.75 
C 0.464105 1.75 0.909265 1.565609 1.237437 1.237437 
C 1.565609 0.909265 1.75 0.464105 1.75 0 
C 1.75 -0.464105 1.565609 -0.909265 1.237437 -1.237437 
C 0.909265 -1.565609 0.464105 -1.75 0 -1.75 
C -0.464105 -1.75 -0.909265 -1.565609 -1.237437 -1.237437 
C -1.565609 -0.909265 -1.75 -0.464105 -1.75 0 
C -1.75 0.464105 -1.565609 0.909265 -1.237437 1.237437 
C -0.909265 1.565609 -0.464105 1.75 0 1.75 
z
" style="stroke: #2a9d8f"/>
    </defs>
    <g clip-path="url(#p0e19caaa8e)">
     <use xlink:href="#m9b8c03e725" x="33.828181" y="106.5054" style="fill: #2a9d8f; stroke: #2a9d8f"/>
     <use xlink:href="#m9b8c03e725" x="81.260178" y="134.328413" style="fill: #2a9d8f; stroke: #2a9d8f"/>
     <use xlink:href="#m9b8c03e725" x="128.692175" y="141.441214" style="fill: #2a9d8f; stroke: #2a9d8f"/>
     <use xlink:href="#m9b8c03e725" x="176.124172" y="145.772953" style="fill: #2a9d8f; stroke: #2a9d8f"/>
     <use xlink:href="#m9b8c03e725" x="223.556169" y="151.688364" style="fill: #2a9d8f; stroke: #2a9d8f"/>
    </g>
   </g>
   <g id="line2d_26">
    <path d="M 33.828181 108.090948 
L 81.260178 138.750908 
L 128.692175 142.254771 
L 176.124172 147.150969 
L 223.556169 151.01444 
" clip-path="url(#p0e19caaa8e)" style="fill: none; stroke: #2c7fb8; stroke-linecap: square"/>
    <defs>
     <path id="m67ff8c7e18" d="M 0 1.75 
C 0.464105 1.75 0.909265 1.565609 1.237437 1.237437 
C 1.565609 0.909265 1.75 0.464105 1.75 0 
C 1.75 -0.464105 1.565609 -0.909265 1.237437 -1.237437 
C 0.909265 -1.565609 0.464105 -1.75 0 -1.75 
C -0.464105 -1.75 -0.909265 -1.565609 -1.237437 -1.237437 
C -1.565609 -0.909265 -1.75 -0.464105 -1.75 0 
C -1.75 0.464105 -1.565609 0.909265 -1.237437 1.237437 
C -0.909265 1.565609 -0.464105 1.75 0 1.75 
z
" style="stroke: #2c7fb8"/>
    </defs>
    <g clip-path="url(#p0e19caaa8e)">
     <use xlink:href="#m67ff8c7e18" x="33.828181" y="108.090948" style="fill: #2c7fb8; stroke: #2c7fb8"/>
     <use xlink:href="#m67ff8c7e18" x="81.260178" y="138.750908" style="fill: #2c7fb8; stroke: #2c7fb8"/>
     <use xlink:href="#m67ff8c7e18" x="128.692175" y="142.254771" style="fill: #2c7fb8; stroke: #2c7fb8"/>
     <use xlink:href="#m67ff8c7e18" x="176.124172" y="147.150969" style="fill: #2c7fb8; stroke: #2c7fb8"/>
     <use xlink:href="#m67ff8c7e18" x="223.556169" y="151.01444" style="fill: #2c7fb8; stroke: #2c7fb8"/>
    </g>
   </g>
   <g id="patch_3">
    <path d="M 24.341781 167.247495 
L 24.341781 14.460094 
" style="fill: none; stroke: #000000; stroke-width: 0.8; stroke-linejoin: miter; stroke-linecap: square"/>
   </g>
   <g id="patch_4">
    <path d="M 24.341781 167.247495 
L 233.042569 167.247495 
" style="fill: none; stroke: #000000; stroke-width: 0.8; stroke-linejoin: miter; stroke-linecap: square"/>
   </g>
   <g id="text_17">
    <text style="font-weight: 600; font-size: 7.7px; font-family: 'Liberation Sans'; text-anchor: middle" x="128.692175" y="8.460094" transform="rotate(-0 128.692175 8.460094)">CGT axis PCA spectrum</text>
   </g>
   <g id="legend_1">
    <g id="line2d_27">
     <path d="M 183.168069 21.088469 
L 188.368069 21.088469 
L 193.568069 21.088469 
" style="fill: none; stroke: #626b75; stroke-linecap: square"/>
     <g>
      <use xlink:href="#mfa2fa7957b" x="188.368069" y="21.088469" style="fill: #626b75; stroke: #626b75"/>
     </g>
    </g>
    <g id="text_18">
     <text style="font-size: 5.2px; font-family: 'Liberation Sans'; text-anchor: start" x="197.728069" y="22.908469" transform="rotate(-0 197.728069 22.908469)">Raw</text>
    </g>
    <g id="line2d_28">
     <path d="M 183.168069 28.535844 
L 188.368069 28.535844 
L 193.568069 28.535844 
" style="fill: none; stroke: #2a9d8f; stroke-linecap: square"/>
     <g>
      <use xlink:href="#m9b8c03e725" x="188.368069" y="28.535844" style="fill: #2a9d8f; stroke: #2a9d8f"/>
     </g>
    </g>
    <g id="text_19">
     <text style="font-size: 5.2px; font-family: 'Liberation Sans'; text-anchor: start" x="197.728069" y="30.355844" transform="rotate(-0 197.728069 30.355844)">Centered</text>
    </g>
    <g id="line2d_29">
     <path d="M 183.168069 35.983219 
L 188.368069 35.983219 
L 193.568069 35.983219 
" style="fill: none; stroke: #2c7fb8; stroke-linecap: square"/>
     <g>
      <use xlink:href="#m67ff8c7e18" x="188.368069" y="35.983219" style="fill: #2c7fb8; stroke: #2c7fb8"/>
     </g>
    </g>
    <g id="text_20">
     <text style="font-size: 5.2px; font-family: 'Liberation Sans'; text-anchor: start" x="197.728069" y="37.803219" transform="rotate(-0 197.728069 37.803219)">LOO residual</text>
    </g>
   </g>
  </g>
 </g>
 <defs>
  <clipPath id="p0e19caaa8e">
   <rect x="24.341781" y="14.460094" width="208.700787" height="152.787402"/>
  </clipPath>
 </defs>
</svg>
